<svg width="128" height="128" viewBox="0 0 128 128" fill="none" xmlns="http://www.w3.org/2000/svg">
<path d="M35.4529 38.2095L23 50.6624L35.4529 63.1153L47.9058 50.6624L35.4529 38.2095Z" fill="#414042"/>
<path d="M47.9265 50.6573L35.4689 38.1997C38.7702 41.5022 40.6248 45.9807 40.6248 50.6503C40.6248 55.32 38.7702 59.7985 35.4689 63.101L23.0112 75.5447L35.4689 88.0023L47.9265 75.5447L60.3841 63.101L47.9265 50.6573Z" fill="url(#paint0_linear_2114_413)"/>
<path d="M90.7532 88.0293L103.206 75.5764L90.7532 63.1235L78.3003 75.5764L90.7532 88.0293Z" fill="#414042"/>
<path d="M78.3025 75.5726L90.7602 88.0163C87.4588 84.7138 85.6043 80.2353 85.6043 75.5656C85.6043 70.896 87.4588 66.4175 90.7602 63.115L103.218 50.6573L90.7602 38.1997L78.3025 50.6573L65.8589 63.115L78.3025 75.5726Z" fill="url(#paint1_linear_2114_413)"/>
<path d="M38.2085 90.767L50.6614 103.22L63.1143 90.767L50.6614 78.314L38.2085 90.767Z" fill="#414042"/>
<path d="M50.6637 78.2953L38.2061 90.7529C41.5086 87.4516 45.987 85.597 50.6567 85.597C55.3263 85.597 59.8048 87.4516 63.1073 90.7529L75.5511 103.211L88.0087 90.7529L75.5511 78.2953L63.1073 65.8516L50.6637 78.2953Z" fill="url(#paint2_linear_2114_413)"/>
<path d="M88.0289 35.453L75.5759 23L63.123 35.4529L75.5759 47.9059L88.0289 35.453Z" fill="#414042"/>
<path d="M75.5789 47.9197L88.0227 35.4621C84.7201 38.7634 80.2416 40.618 75.572 40.618C70.9023 40.618 66.4239 38.7634 63.1213 35.4621L50.6637 23.0044L38.2061 35.4621L50.6637 47.9197L63.1213 60.3774L75.5789 47.9197Z" fill="url(#paint3_linear_2114_413)"/>
<defs>
<linearGradient id="paint0_linear_2114_413" x1="41.572" y1="85.9633" x2="41.8792" y2="42.8783" gradientUnits="userSpaceOnUse">
<stop stop-color="#414042"/>
<stop offset="1" stop-color="#E6E7E8"/>
</linearGradient>
<linearGradient id="paint1_linear_2114_413" x1="146828" y1="18855.4" x2="146813" y2="20392.2" gradientUnits="userSpaceOnUse">
<stop stop-color="#414042"/>
<stop offset="1" stop-color="#E6E7E8"/>
</linearGradient>
<linearGradient id="paint2_linear_2114_413" x1="94618.9" y1="113312" x2="93466.3" y2="113306" gradientUnits="userSpaceOnUse">
<stop stop-color="#414042"/>
<stop offset="1" stop-color="#E6E7E8"/>
</linearGradient>
<linearGradient id="paint3_linear_2114_413" x1="77163.6" y1="-58623" x2="78316.6" y2="-58616.8" gradientUnits="userSpaceOnUse">
<stop stop-color="#414042"/>
<stop offset="1" stop-color="#E6E7E8"/>
</linearGradient>
</defs>
</svg>
