<svg width="128" height="128" viewBox="0 0 128 128" fill="none" xmlns="http://www.w3.org/2000/svg">
<path opacity="0.95" d="M40.7002 85.11V96.76L50.7802 90.93V79.29L40.7002 85.11Z" fill="#414042"/>
<path opacity="0.5" d="M39.08 85.11V96.76L29 90.93V79.29L39.08 85.11Z" fill="#414042"/>
<path opacity="0.3" d="M40.7002 72.5298V83.2398L49.9802 77.8798L40.7002 72.5298Z" fill="#414042"/>
<path opacity="0.75" d="M39.0798 72.5298L29.7998 77.8798L39.0798 83.2398V72.5298Z" fill="#414042"/>
<path opacity="0.95" d="M39.08 69.67V58.02L29 63.85V75.49L39.08 69.67Z" fill="#414042"/>
<path opacity="0.95" d="M40.7002 42.5798V54.2298L50.7802 48.3998V36.7598L40.7002 42.5798Z" fill="#414042"/>
<path opacity="0.5" d="M39.08 42.5798V54.2298L29 48.3998V36.7598L39.08 42.5798Z" fill="#414042"/>
<path opacity="0.3" d="M40.7002 30V40.71L49.9802 35.35L40.7002 30Z" fill="#414042"/>
<path opacity="0.75" d="M39.0798 30L29.7998 35.35L39.0798 40.71V30Z" fill="#414042"/>
<path opacity="0.75" d="M29.7998 50.7202V61.4402L39.0798 56.0802L29.7998 50.7202Z" fill="#414042"/>
<path opacity="0.15" d="M49.9802 50.7202L40.7002 56.0802L49.9802 61.4402V50.7202Z" fill="#414042"/>
<path opacity="0.5" d="M40.7002 69.67V58.02L50.7802 63.85V75.49L40.7002 69.67Z" fill="#414042"/>
<path opacity="0.95" d="M64.2002 85.11V96.76L74.2802 90.93V79.29L64.2002 85.11Z" fill="#414042"/>
<path opacity="0.5" d="M62.58 85.11V96.76L52.5 90.93V79.29L62.58 85.11Z" fill="#414042"/>
<path opacity="0.3" d="M64.2002 72.5298V83.2398L73.4802 77.8798L64.2002 72.5298Z" fill="#414042"/>
<path opacity="0.75" d="M62.5798 72.5298L53.2998 77.8798L62.5798 83.2398V72.5298Z" fill="#414042"/>
<path opacity="0.95" d="M62.58 69.67V58.02L52.5 63.85V75.49L62.58 69.67Z" fill="#414042"/>
<path opacity="0.95" d="M64.2002 42.5798V54.2298L74.2802 48.3998V36.7598L64.2002 42.5798Z" fill="#414042"/>
<path opacity="0.5" d="M62.58 42.5798V54.2298L52.5 48.3998V36.7598L62.58 42.5798Z" fill="#414042"/>
<path opacity="0.3" d="M64.2002 30V40.71L73.4802 35.35L64.2002 30Z" fill="#414042"/>
<path opacity="0.75" d="M62.5798 30L53.2998 35.35L62.5798 40.71V30Z" fill="#414042"/>
<path opacity="0.75" d="M53.2998 50.7202V61.4402L62.5798 56.0802L53.2998 50.7202Z" fill="#414042"/>
<path opacity="0.15" d="M73.4802 50.7202L64.2002 56.0802L73.4802 61.4402V50.7202Z" fill="#414042"/>
<path opacity="0.5" d="M64.2002 69.67V58.02L74.2802 63.85V75.49L64.2002 69.67Z" fill="#414042"/>
<path opacity="0.95" d="M87.3599 85.11V96.76L97.4498 90.93V79.29L87.3599 85.11Z" fill="#414042"/>
<path opacity="0.5" d="M85.7497 85.11V96.76L75.6597 90.93V79.29L85.7497 85.11Z" fill="#414042"/>
<path opacity="0.3" d="M87.3599 72.5298V83.2398L96.6398 77.8798L87.3599 72.5298Z" fill="#414042"/>
<path opacity="0.75" d="M85.7502 72.5298L76.4702 77.8798L85.7502 83.2398V72.5298Z" fill="#414042"/>
<path opacity="0.95" d="M85.7497 69.67V58.02L75.6597 63.85V75.49L85.7497 69.67Z" fill="#414042"/>
<path opacity="0.95" d="M87.3599 42.5798V54.2298L97.4498 48.3998V36.7598L87.3599 42.5798Z" fill="#414042"/>
<path opacity="0.5" d="M85.7497 42.5798V54.2298L75.6597 48.3998V36.7598L85.7497 42.5798Z" fill="#414042"/>
<path opacity="0.3" d="M87.3599 30V40.71L96.6398 35.35L87.3599 30Z" fill="#414042"/>
<path opacity="0.75" d="M85.7502 30L76.4702 35.35L85.7502 40.71V30Z" fill="#414042"/>
<path opacity="0.75" d="M76.4702 50.7202V61.4402L85.7502 56.0802L76.4702 50.7202Z" fill="#414042"/>
<path opacity="0.15" d="M96.6398 50.7202L87.3599 56.0802L96.6398 61.4402V50.7202Z" fill="#414042"/>
<path opacity="0.5" d="M87.3599 69.67V58.02L97.4498 63.85V75.49L87.3599 69.67Z" fill="#414042"/>
</svg>
