<svg width="28" height="36" viewBox="0 0 28 36" fill="none" xmlns="http://www.w3.org/2000/svg">
<path d="M11.6727 23.4197C10.7872 28.1902 9.70916 32.7647 6.51016 35.1535C5.52491 27.9435 7.96091 22.5272 9.09141 16.7785C7.16291 13.436 9.32417 6.70721 13.3912 8.36446C18.3962 10.405 9.05642 20.793 15.3267 22.0915C21.8734 23.446 24.5474 10.3962 20.4874 6.15071C14.6214 0.0239616 3.41266 6.01246 4.79166 14.7852C5.12766 16.9307 7.27842 17.5817 5.65092 20.5427C1.89717 19.6835 0.777165 16.635 0.922415 12.5697C1.15341 5.91971 6.72716 1.26121 12.3167 0.617211C19.3867 -0.198289 26.0209 3.28946 26.9362 10.1372C27.9687 17.8652 23.7459 26.2372 16.1877 25.6335C14.1384 25.4707 13.2774 24.426 11.6727 23.4197V23.4197Z" fill="#F38281"/>
</svg>
