<svg width="42" height="42" viewBox="0 0 42 42" fill="none" xmlns="http://www.w3.org/2000/svg">
<path d="M21 39.0425C17.4316 39.0425 13.9432 37.9844 10.9762 36.0018C8.00908 34.0193 5.69653 31.2014 4.33093 27.9046C2.96534 24.6078 2.60804 20.98 3.30421 17.4801C4.00038 13.9802 5.71876 10.7653 8.24205 8.24205C10.7653 5.71876 13.9802 4.00038 17.4801 3.30421C20.98 2.60804 24.6078 2.96534 27.9046 4.33093C31.2014 5.69653 34.0193 8.00908 36.0018 10.9762C37.9844 13.9432 39.0425 17.4316 39.0425 21C39.0379 25.7838 37.1355 30.3703 33.7529 33.7529C30.3703 37.1355 25.7838 39.0379 21 39.0425ZM21 4.70753C17.7777 4.70753 14.6277 5.66307 11.9484 7.45331C9.26911 9.24355 7.18086 11.7881 5.94772 14.7652C4.71458 17.7422 4.39193 21.0181 5.02058 24.1785C5.64923 27.339 7.20094 30.242 9.47949 32.5206C11.758 34.7991 14.6611 36.3508 17.8215 36.9795C20.982 37.6081 24.2578 37.2855 27.2349 36.0523C30.212 34.8192 32.7565 32.7309 34.5467 30.0517C36.337 27.3724 37.2925 24.2224 37.2925 21C37.2833 16.6818 35.5638 12.5431 32.5103 9.4897C29.4569 6.43627 25.3182 4.71677 21 4.70753Z" fill="#95E1D3"/>
<path d="M14.1924 28C13.2406 28 12.3101 27.7178 11.5187 27.1889C10.7273 26.6601 10.1105 25.9085 9.74621 25.0292C9.38197 24.1498 9.28666 23.1822 9.47236 22.2486C9.65805 21.3151 10.1164 20.4576 10.7894 19.7846C11.4625 19.1115 12.32 18.6532 13.2535 18.4675C14.187 18.2818 15.1547 18.3771 16.034 18.7413C16.9134 19.1056 17.665 19.7224 18.1938 20.5138C18.7226 21.3052 19.0049 22.2357 19.0049 23.1875C19.0049 23.8195 18.8804 24.4453 18.6386 25.0292C18.3967 25.613 18.0422 26.1436 17.5953 26.5905C17.1485 27.0373 16.6179 27.3918 16.034 27.6337C15.4502 27.8755 14.8244 28 14.1924 28ZM14.1924 20.125C13.583 20.1253 12.9876 20.3073 12.4822 20.6478C11.9769 20.9884 11.5846 21.4719 11.3556 22.0366C11.1266 22.6014 11.0713 23.2216 11.1967 23.8179C11.3221 24.4142 11.6226 24.9596 12.0597 25.3842C12.4968 25.8088 13.0507 26.0933 13.6504 26.2014C14.2501 26.3095 14.8684 26.2363 15.4263 25.991C15.9841 25.7457 16.4561 25.3396 16.7818 24.8246C17.1076 24.3096 17.2723 23.7091 17.2549 23.1C17.2503 22.2892 16.9262 21.5129 16.3528 20.9396C15.7795 20.3662 15.0032 20.0421 14.1924 20.0375V20.125Z" fill="#95E1D3"/>
<path d="M27.8076 28C26.8558 28 25.9253 27.7178 25.1339 27.1889C24.3425 26.6601 23.7257 25.9085 23.3614 25.0292C22.9972 24.1498 22.9019 23.1822 23.0876 22.2486C23.2733 21.3151 23.7316 20.4576 24.4047 19.7846C25.0777 19.1115 25.9352 18.6532 26.8687 18.4675C27.8023 18.2818 28.7699 18.3771 29.6493 18.7413C30.5287 19.1056 31.2803 19.7224 31.8091 20.5138C32.3379 21.3052 32.6201 22.2357 32.6201 23.1875C32.6201 24.4639 32.1131 25.6879 31.2106 26.5905C30.3081 27.493 29.084 28 27.8076 28ZM27.8076 20.125C27.2019 20.125 26.6098 20.3046 26.1062 20.6411C25.6026 20.9776 25.21 21.4559 24.9782 22.0155C24.7464 22.5751 24.6858 23.1909 24.804 23.785C24.9221 24.379 25.2138 24.9247 25.6421 25.353C26.0704 25.7813 26.6161 26.073 27.2102 26.1912C27.8042 26.3093 28.42 26.2487 28.9796 26.0169C29.5392 25.7851 30.0175 25.3926 30.354 24.8889C30.6905 24.3853 30.8701 23.7932 30.8701 23.1875C30.8818 22.778 30.8113 22.3704 30.6626 21.9886C30.5139 21.6069 30.2902 21.2589 30.0047 20.9652C29.7191 20.6715 29.3775 20.438 29.0002 20.2787C28.6228 20.1194 28.2173 20.0373 27.8076 20.0375V20.125Z" fill="#95E1D3"/>
<path d="M4.23505 18.13C4.03334 18.13 3.8378 18.0604 3.68154 17.9328C3.52528 17.8053 3.41789 17.6276 3.37755 17.43C3.33576 17.203 3.3835 16.9687 3.51076 16.7762C3.63801 16.5837 3.83488 16.448 4.06005 16.3975C4.25255 16.3625 23.1875 12.25 28.2801 5.24999C28.3477 5.15672 28.4331 5.07772 28.5313 5.01754C28.6296 4.95735 28.7387 4.91717 28.8526 4.89928C28.9664 4.88139 29.0826 4.88616 29.1946 4.91331C29.3066 4.94046 29.4121 4.98946 29.5051 5.05749C29.6896 5.19692 29.8129 5.40257 29.8488 5.6311C29.8847 5.85962 29.8305 6.09316 29.6975 6.28249C24.2025 13.825 5.25005 17.9375 4.42755 18.1125L4.23505 18.13Z" fill="#95E1D3"/>
<path d="M33.2499 15.2251C28.9145 15.0804 24.643 14.1372 20.6499 12.4426C20.4364 12.3497 20.2685 12.1759 20.1832 11.9593C20.0978 11.7427 20.102 11.5011 20.1949 11.2876C20.2877 11.0741 20.4615 10.9062 20.6781 10.8209C20.8947 10.7355 21.1364 10.7397 21.3499 10.8326C21.4374 10.8326 29.6449 14.4901 36.5399 13.1951C36.7693 13.1538 37.0058 13.2039 37.1987 13.3347C37.3917 13.4655 37.5258 13.6667 37.5724 13.8951C37.6133 14.1224 37.5626 14.3567 37.4315 14.5468C37.3004 14.7369 37.0994 14.8675 36.8724 14.9101C35.6779 15.1318 34.4647 15.2373 33.2499 15.2251Z" fill="#95E1D3"/>
<path d="M23.8699 23.9751H18.1299C17.8978 23.9751 17.6753 23.8829 17.5112 23.7188C17.3471 23.5547 17.2549 23.3322 17.2549 23.1001C17.2594 22.8694 17.353 22.6495 17.5161 22.4863C17.6793 22.3232 17.8992 22.2296 18.1299 22.2251H23.8699C24.1005 22.2296 24.3205 22.3232 24.4836 22.4863C24.6468 22.6495 24.7404 22.8694 24.7449 23.1001C24.7449 23.3322 24.6527 23.5547 24.4886 23.7188C24.3245 23.8829 24.1019 23.9751 23.8699 23.9751Z" fill="#95E1D3"/>
<path d="M10.2552 23.9751H3.97266C3.74059 23.9751 3.51803 23.8829 3.35394 23.7188C3.18984 23.5547 3.09766 23.3322 3.09766 23.1001C3.10214 22.8694 3.19576 22.6495 3.3589 22.4863C3.52203 22.3232 3.74199 22.2296 3.97266 22.2251H10.2552C10.4872 22.2251 10.7098 22.3173 10.8739 22.4814C11.038 22.6455 11.1302 22.868 11.1302 23.1001C11.1302 23.3322 11.038 23.5547 10.8739 23.7188C10.7098 23.8829 10.4872 23.9751 10.2552 23.9751Z" fill="#95E1D3"/>
<path d="M38.0451 23.9751H31.7451C31.5131 23.9751 31.2905 23.8829 31.1264 23.7188C30.9623 23.5547 30.8701 23.3322 30.8701 23.1001C30.8701 22.868 30.9623 22.6455 31.1264 22.4814C31.2905 22.3173 31.5131 22.2251 31.7451 22.2251H38.0451C38.2772 22.2251 38.4997 22.3173 38.6638 22.4814C38.8279 22.6455 38.9201 22.868 38.9201 23.1001C38.9201 23.3322 38.8279 23.5547 38.6638 23.7188C38.4997 23.8829 38.2772 23.9751 38.0451 23.9751Z" fill="#95E1D3"/>
</svg>
