<svg width="70" height="70" viewBox="0 0 70 70" fill="none" xmlns="http://www.w3.org/2000/svg">
<path d="M34.9998 62.7083C29.5197 62.7083 24.1625 61.0832 19.6059 58.0386C15.0493 54.994 11.4979 50.6665 9.40069 45.6035C7.30351 40.5405 6.75479 34.9692 7.82392 29.5943C8.89306 24.2195 11.532 19.2823 15.4071 15.4072C19.2822 11.5321 24.2193 8.89318 29.5942 7.82405C34.9691 6.75491 40.5403 7.30363 45.6034 9.40081C50.6664 11.498 54.9939 15.0494 58.0385 19.606C61.0831 24.1627 62.7082 29.5198 62.7082 35C62.7005 42.3463 59.7787 49.3895 54.5841 54.5842C49.3894 59.7788 42.3462 62.7006 34.9998 62.7083ZM34.9998 10.2083C30.0965 10.2083 25.3033 11.6623 21.2263 14.3865C17.1494 17.1106 13.9718 20.9825 12.0953 25.5126C10.2189 30.0427 9.72796 35.0275 10.6845 39.8366C11.6411 44.6457 14.0023 49.0632 17.4695 52.5303C20.9367 55.9975 25.3541 58.3587 30.1632 59.3153C34.9723 60.2719 39.9571 59.7809 44.4872 57.9045C49.0173 56.0281 52.8892 52.8505 55.6134 48.7735C58.3375 44.6965 59.7915 39.9033 59.7915 35C59.7838 28.4272 57.1693 22.1258 52.5217 17.4781C47.874 12.8305 41.5726 10.216 34.9998 10.2083V10.2083Z" fill="#95E1D3"/>
<path d="M35 50.1957C31.9946 50.1957 29.0566 49.3045 26.5577 47.6348C24.0587 45.965 22.1111 43.5918 20.9609 40.8151C19.8108 38.0384 19.5099 34.9831 20.0962 32.0354C20.6825 29.0877 22.1298 26.38 24.255 24.2548C26.3801 22.1297 29.0878 20.6824 32.0355 20.0961C34.9832 19.5097 38.0386 19.8107 40.8152 20.9608C43.5919 22.1109 45.9652 24.0586 47.6349 26.5576C49.3047 29.0565 50.1959 31.9945 50.1959 34.9999C50.1882 39.0277 48.5847 42.8884 45.7366 45.7365C42.8885 48.5846 39.0279 50.188 35 50.1957V50.1957ZM35 22.7208C32.5714 22.7208 30.1974 23.4409 28.1781 24.7902C26.1588 26.1394 24.5849 28.0572 23.6556 30.3009C22.7262 32.5446 22.483 35.0135 22.9568 37.3955C23.4306 39.7774 24.6001 41.9653 26.3174 43.6826C28.0346 45.3999 30.2226 46.5693 32.6045 47.0431C34.9864 47.5169 37.4553 47.2738 39.6991 46.3444C41.9428 45.415 43.8605 43.8412 45.2098 41.8219C46.559 39.8026 47.2792 37.4285 47.2792 34.9999C47.2715 31.7456 45.9753 28.6269 43.6742 26.3257C41.3731 24.0246 38.2543 22.7285 35 22.7208V22.7208Z" fill="#95E1D3"/>
<path d="M61.2498 36.4583H8.74984C8.36306 36.4583 7.99213 36.3046 7.71864 36.0312C7.44515 35.7577 7.2915 35.3867 7.2915 35C7.2915 34.6132 7.44515 34.2423 7.71864 33.9688C7.99213 33.6953 8.36306 33.5416 8.74984 33.5416H61.2498C61.6366 33.5416 62.0075 33.6953 62.281 33.9688C62.5545 34.2423 62.7082 34.6132 62.7082 35C62.7082 35.3867 62.5545 35.7577 62.281 36.0312C62.0075 36.3046 61.6366 36.4583 61.2498 36.4583Z" fill="#95E1D3"/>
<path d="M34.9998 62.7083C34.6131 62.7083 34.2421 62.5546 33.9686 62.2812C33.6951 62.0077 33.5415 61.6367 33.5415 61.25V8.74996C33.5415 8.36319 33.6951 7.99225 33.9686 7.71876C34.2421 7.44527 34.6131 7.29163 34.9998 7.29163C35.3866 7.29163 35.7575 7.44527 36.031 7.71876C36.3045 7.99225 36.4582 8.36319 36.4582 8.74996V61.25C36.4582 61.6367 36.3045 62.0077 36.031 62.2812C35.7575 62.5546 35.3866 62.7083 34.9998 62.7083Z" fill="#95E1D3"/>
</svg>
