<svg width="24" height="24" viewBox="0 0 24 24" fill="none" xmlns="http://www.w3.org/2000/svg">
<path d="M16.3902 15.3101H12.2002C12.0676 15.3101 11.9404 15.2574 11.8466 15.1636C11.7529 15.0698 11.7002 14.9427 11.7002 14.8101C11.7002 14.6775 11.7529 14.5503 11.8466 14.4565C11.9404 14.3627 12.0676 14.3101 12.2002 14.3101H16.3902C16.5228 14.3101 16.65 14.3627 16.7437 14.4565C16.8375 14.5503 16.8902 14.6775 16.8902 14.8101C16.8902 14.9427 16.8375 15.0698 16.7437 15.1636C16.65 15.2574 16.5228 15.3101 16.3902 15.3101Z" fill="white"/>
<path d="M19.2099 15C19.1507 15.0141 19.0891 15.0141 19.0299 15C18.9683 14.9778 18.9118 14.9435 18.8636 14.899C18.8155 14.8546 18.7768 14.8009 18.7497 14.7413C18.7227 14.6816 18.7079 14.6171 18.7062 14.5516C18.7045 14.4862 18.716 14.421 18.7399 14.36L21.1199 8.00002C21.167 7.87723 21.2606 7.77793 21.3804 7.72365C21.5002 7.66937 21.6365 7.66447 21.7599 7.71002C21.8837 7.75932 21.9838 7.85423 22.0396 7.97518C22.0954 8.09612 22.1027 8.23387 22.0599 8.36002L19.6799 14.69C19.6396 14.7814 19.5739 14.8592 19.4905 14.9141C19.4072 14.9691 19.3098 14.9989 19.2099 15Z" fill="white"/>
<path d="M9.00014 15.1901C8.8958 15.1908 8.79395 15.1582 8.70942 15.0971C8.62488 15.0359 8.56207 14.9494 8.53014 14.8501L5.39014 5.31006H2.39014C2.25753 5.31006 2.13035 5.25738 2.03658 5.16361C1.94282 5.06984 1.89014 4.94267 1.89014 4.81006C1.8927 4.67825 1.9462 4.55256 2.03942 4.45934C2.13264 4.36612 2.25833 4.31262 2.39014 4.31006H5.75014C5.85374 4.31227 5.95422 4.34599 6.03818 4.40673C6.12215 4.46747 6.18562 4.55235 6.22014 4.65006L9.51014 14.5301C9.53205 14.5917 9.54139 14.6572 9.5376 14.7225C9.53381 14.7878 9.51698 14.8518 9.48808 14.9105C9.45919 14.9692 9.41882 15.0215 9.36936 15.0644C9.31991 15.1073 9.26237 15.1398 9.20014 15.1601C9.13661 15.1851 9.06822 15.1954 9.00014 15.1901Z" fill="white"/>
<path d="M10.54 19.6901C9.9467 19.6901 9.36668 19.5141 8.87333 19.1845C8.37998 18.8548 7.99546 18.3863 7.7684 17.8381C7.54134 17.2899 7.48193 16.6867 7.59768 16.1048C7.71344 15.5229 7.99916 14.9883 8.41872 14.5687C8.83828 14.1492 9.37283 13.8635 9.95477 13.7477C10.5367 13.632 11.1399 13.6914 11.6881 13.9184C12.2363 14.1455 12.7048 14.53 13.0344 15.0234C13.3641 15.5167 13.54 16.0967 13.54 16.6901C13.54 17.4857 13.224 18.2488 12.6614 18.8114C12.0988 19.374 11.3357 19.6901 10.54 19.6901ZM10.54 14.6901C10.1445 14.6901 9.7578 14.8074 9.4289 15.0271C9.1 15.2469 8.84366 15.5592 8.69228 15.9247C8.54091 16.2901 8.5013 16.6923 8.57847 17.0802C8.65564 17.4682 8.84612 17.8246 9.12583 18.1043C9.40553 18.384 9.7619 18.5745 10.1499 18.6516C10.5378 18.7288 10.94 18.6892 11.3054 18.5378C11.6709 18.3864 11.9832 18.1301 12.203 17.8012C12.4227 17.4723 12.54 17.0856 12.54 16.6901C12.54 16.1596 12.3293 15.6509 11.9543 15.2759C11.5792 14.9008 11.0705 14.6901 10.54 14.6901Z" fill="white"/>
<path d="M18.0503 19.6901C17.4569 19.6901 16.8769 19.5141 16.3836 19.1845C15.8902 18.8548 15.5057 18.3863 15.2787 17.8381C15.0516 17.2899 14.9922 16.6867 15.1079 16.1048C15.2237 15.5229 15.5094 14.9883 15.929 14.5687C16.3485 14.1492 16.8831 13.8635 17.465 13.7477C18.047 13.632 18.6502 13.6914 19.1983 13.9184C19.7465 14.1455 20.2151 14.53 20.5447 15.0234C20.8743 15.5167 21.0503 16.0967 21.0503 16.6901C21.0503 17.4857 20.7342 18.2488 20.1716 18.8114C19.609 19.374 18.8459 19.6901 18.0503 19.6901ZM18.0503 14.6901C17.6547 14.6901 17.2681 14.8074 16.9392 15.0271C16.6103 15.2469 16.3539 15.5592 16.2025 15.9247C16.0512 16.2901 16.0116 16.6923 16.0887 17.0802C16.1659 17.4682 16.3564 17.8246 16.6361 18.1043C16.9158 18.384 17.2722 18.5745 17.6601 18.6516C18.0481 18.7288 18.4502 18.6892 18.8157 18.5378C19.1811 18.3864 19.4935 18.1301 19.7132 17.8012C19.933 17.4723 20.0503 17.0856 20.0503 16.6901C20.0503 16.1596 19.8396 15.6509 19.4645 15.2759C19.0894 14.9008 18.5807 14.6901 18.0503 14.6901Z" fill="white"/>
</svg>
