<svg width="32" height="32" viewBox="0 0 32 32" fill="none" xmlns="http://www.w3.org/2000/svg">
<path d="M30.3333 16.7736C30.3364 16.9183 30.2893 17.0597 30.2 17.1736L23.3733 26.3069C23.3112 26.3907 23.231 26.4594 23.1387 26.5079C23.0463 26.5563 22.9442 26.5834 22.84 26.5869H9.17335C9.06684 26.5854 8.96212 26.5593 8.86732 26.5108C8.77251 26.4622 8.69017 26.3924 8.62668 26.3069L1.80001 17.1736C1.71547 17.0573 1.66992 16.9173 1.66992 16.7736C1.66992 16.6298 1.71547 16.4898 1.80001 16.3736L8.62668 7.24025C8.69085 7.15641 8.77365 7.08867 8.86854 7.04238C8.96342 6.9961 9.06778 6.97254 9.17335 6.97358H22.84C22.9433 6.97459 23.0451 6.99913 23.1375 7.04534C23.2299 7.09154 23.3105 7.1582 23.3733 7.24025L30.2 16.3736C30.2874 16.4885 30.3343 16.6292 30.3333 16.7736V16.7736ZM22.5067 25.2536L28.84 16.7736L22.5067 8.30691H9.50668L3.16001 16.7736L9.50668 25.2536H22.5067Z" fill="#95E1D3"/>
<path d="M22.7733 16.7732C22.7764 16.9179 22.7292 17.0593 22.6399 17.1732L19.5866 21.2665C19.5238 21.3486 19.4431 21.4152 19.3507 21.4614C19.2583 21.5077 19.1566 21.5322 19.0533 21.5332H12.9466C12.8433 21.5322 12.7416 21.5077 12.6491 21.4614C12.5567 21.4152 12.4761 21.3486 12.4133 21.2665L9.33327 17.1732C9.24239 17.0597 9.19287 16.9186 9.19287 16.7732C9.19287 16.6278 9.24239 16.4867 9.33327 16.3732L12.3866 12.2932C12.4472 12.2088 12.5274 12.1404 12.6203 12.094C12.7132 12.0475 12.8161 12.0244 12.9199 12.0265H19.0266C19.1305 12.0244 19.2333 12.0475 19.3262 12.094C19.4191 12.1404 19.4994 12.2088 19.5599 12.2932L22.6666 16.3732C22.7446 16.4914 22.782 16.6318 22.7733 16.7732ZM18.6666 20.1999L21.3333 16.7732L18.6666 13.3332H13.3333L10.6666 16.7732L13.3333 20.1999H18.6666Z" fill="#95E1D3"/>
</svg>
