<svg width="32" height="32" viewBox="0 0 32 32" fill="none" xmlns="http://www.w3.org/2000/svg">
<path d="M17.4402 26.9869C15.6261 26.9885 13.8381 26.5541 12.2269 25.7203C12.149 25.68 12.0798 25.6248 12.0232 25.5577C11.9666 25.4907 11.9238 25.4132 11.8972 25.3296C11.8705 25.246 11.8606 25.1581 11.868 25.0707C11.8754 24.9833 11.9 24.8982 11.9402 24.8203C11.9805 24.7423 12.0357 24.6731 12.1028 24.6165C12.1698 24.56 12.2473 24.5171 12.3309 24.4905C12.4144 24.4639 12.5024 24.454 12.5898 24.4614C12.6772 24.4688 12.7623 24.4933 12.8402 24.5336C14.9982 25.6314 17.4806 25.9114 19.8289 25.3216C22.1772 24.7319 24.2327 23.3123 25.616 21.3251C26.9992 19.3379 27.6167 16.9174 27.3543 14.5104C27.0919 12.1035 25.9675 9.87274 24.1886 8.23023C22.4097 6.58773 20.0965 5.64439 17.6763 5.57444C15.2562 5.50449 12.8924 6.31264 11.0216 7.84966C9.15082 9.38667 7.89939 11.5487 7.49844 13.9365C7.09748 16.3243 7.57409 18.7765 8.84023 20.8403C8.92954 20.993 8.95583 21.1745 8.91351 21.3462C8.87119 21.518 8.76359 21.6665 8.61356 21.7603C8.5384 21.8062 8.45486 21.8368 8.36779 21.8503C8.28072 21.8638 8.19184 21.8599 8.10629 21.8388C8.02074 21.8177 7.94021 21.7799 7.86937 21.7275C7.79853 21.6751 7.73878 21.6092 7.69356 21.5336C6.23037 19.1905 5.67334 16.3936 6.12716 13.6687C6.58098 10.9438 8.0144 8.47849 10.158 6.73609C12.3016 4.99368 15.0078 4.09419 17.768 4.20667C20.5281 4.31915 23.1522 5.43587 25.1469 7.34692C26.6874 8.77472 27.8007 10.6025 28.3628 12.6263C28.9248 14.6501 28.9134 16.7903 28.3298 18.8079C27.7462 20.8256 26.6134 22.6414 25.0578 24.0527C23.5022 25.464 21.585 26.4152 19.5202 26.8003C18.8343 26.9279 18.1379 26.9904 17.4402 26.9869Z" fill="#95E1D3"/>
<path d="M7.09345 27.6807C6.83499 27.6758 6.58171 27.6073 6.35601 27.4813C6.13031 27.3552 5.93915 27.1755 5.79942 26.958C5.6597 26.7405 5.57572 26.492 5.55491 26.2343C5.5341 25.9766 5.5771 25.7178 5.68012 25.4807L7.70678 20.9207C7.78222 20.7591 7.91814 20.6336 8.08524 20.5712C8.25234 20.5089 8.43725 20.5147 8.60011 20.5874C8.76078 20.6601 8.88607 20.7936 8.94855 20.9585C9.01102 21.1235 9.00559 21.3064 8.93345 21.4674L6.89345 26.0274C6.86748 26.062 6.85345 26.1041 6.85345 26.1474C6.85345 26.1906 6.86748 26.2327 6.89345 26.2674C6.92257 26.3007 6.96082 26.3248 7.00347 26.3366C7.04612 26.3485 7.0913 26.3476 7.13345 26.334L12.2668 24.5074C12.3489 24.4758 12.4366 24.4611 12.5246 24.4642C12.6125 24.4673 12.699 24.4882 12.7787 24.5256C12.8584 24.5629 12.9297 24.616 12.9884 24.6816C13.047 24.7472 13.0919 24.824 13.1201 24.9074C13.1802 25.0736 13.1718 25.2568 13.0967 25.4168C13.0217 25.5768 12.8863 25.7005 12.7201 25.7607L7.62678 27.5874C7.45618 27.6507 7.27543 27.6823 7.09345 27.6807Z" fill="#95E1D3"/>
</svg>
