<svg width="24" height="24" viewBox="0 0 24 24" fill="none" xmlns="http://www.w3.org/2000/svg">
<path d="M11.9999 0.571289C5.68786 0.571289 0.571289 5.68786 0.571289 11.9999C0.571289 18.3119 5.68786 23.4284 11.9999 23.4284C18.3119 23.4284 23.4284 18.3119 23.4284 11.9999C23.4284 5.68786 18.3119 0.571289 11.9999 0.571289ZM11.9999 2.22729C14.4896 2.22729 16.7621 3.15872 18.4879 4.69129C17.2199 6.36386 15.2936 7.47757 13.3633 8.23129C12.2706 6.2412 11.0459 4.32645 9.69757 2.49986C10.4517 2.31809 11.2247 2.22659 12.0004 2.22729H11.9999ZM7.84215 3.153C9.11643 5.05929 10.3507 6.82672 11.4781 8.82729C8.62672 9.56615 5.40443 10.0096 2.42786 10.017C3.05529 6.97243 5.10043 4.44443 7.84215 3.15357V3.153ZM19.5719 5.82157C20.984 7.54726 21.7608 9.70548 21.7724 11.9353C19.5119 11.4896 17.2639 11.373 14.9747 11.6039C14.7176 10.9621 14.4056 10.3524 14.1067 9.69529C16.0799 8.89929 18.1896 7.537 19.5719 5.821V5.82157ZM12.2719 10.3393C12.5164 10.8593 12.7999 11.4113 13.0661 11.9753C9.88329 13.3787 6.49757 15.2541 4.74043 18.5421C3.05358 16.6754 2.1546 14.2283 2.23186 11.7136C5.64043 11.6976 8.98615 11.2713 12.2719 10.3393ZM17.4364 13.0039C18.8586 13.0042 20.2749 13.1866 21.6507 13.5467C21.4386 14.8703 20.9564 16.136 20.2341 17.2653C19.5119 18.3945 18.565 19.3631 17.4524 20.1107C16.9279 17.725 16.4279 15.4421 15.5439 13.1404C16.1704 13.0491 16.8027 13.0033 17.4359 13.0033L17.4364 13.0039ZM21.7016 13.181C21.6947 13.237 21.6884 13.2919 21.6804 13.3467C21.6884 13.2913 21.6953 13.2364 21.7016 13.181ZM13.7359 13.5867C14.6364 15.9141 15.3433 18.4913 15.8176 20.9993C14.6103 21.5116 13.3119 21.7747 12.0004 21.773C9.82777 21.7761 7.71658 21.0519 6.00329 19.7159C7.773 16.845 10.5141 14.6724 13.7353 13.5873L13.7359 13.5867Z" fill="#95E1D3"/>
</svg>
