<svg width="32" height="32" viewBox="0 0 32 32" fill="none" xmlns="http://www.w3.org/2000/svg">
<path d="M16.0034 31.8218C11.6984 31.8218 11.1909 31.799 9.51092 31.7255C8.20081 31.6825 6.90767 31.4162 5.68717 30.938C4.64273 30.5316 3.69423 29.9124 2.9019 29.1197C2.10957 28.3271 1.49073 27.3784 1.08467 26.3338C0.624954 25.1089 0.376999 23.8146 0.351418 22.5065C0.253418 20.83 0.253418 20.2805 0.253418 16.0088C0.253418 11.6915 0.276168 11.1875 0.351418 9.51629C0.377559 8.20995 0.625505 6.91755 1.08467 5.69429C1.49026 4.64838 2.10952 3.69855 2.90291 2.90547C3.69629 2.11239 4.64635 1.49348 5.69242 1.08829C6.91505 0.626643 8.20777 0.378041 9.51442 0.353289C11.1857 0.258789 11.7352 0.258789 16.0034 0.258789C20.3434 0.258789 20.8422 0.281539 22.4959 0.353289C23.8049 0.377789 25.1034 0.626289 26.3284 1.08829C27.3742 1.49395 28.324 2.11302 29.1174 2.90604C29.9107 3.69907 30.5301 4.64865 30.9362 5.69429C31.4034 6.93679 31.6537 8.24929 31.6729 9.57404C31.7709 11.2505 31.7709 11.7983 31.7709 16.0683C31.7709 20.3383 31.7464 20.8983 31.6729 22.5555C31.6468 23.8649 31.3982 25.1602 30.9379 26.3863C30.5308 27.4316 29.9108 28.3809 29.1173 29.1738C28.3238 29.9667 27.374 30.586 26.3284 30.9923C25.1034 31.4508 23.8102 31.6993 22.5029 31.7255C20.8317 31.8218 20.2839 31.8218 16.0034 31.8218V31.8218ZM15.9439 3.02904C11.6634 3.02904 11.2189 3.05004 9.54767 3.12529C8.54955 3.13834 7.56107 3.32242 6.62517 3.66954C5.94255 3.93119 5.32233 4.33298 4.8045 4.84901C4.28666 5.36503 3.88271 5.98384 3.61867 6.66554C3.26867 7.61054 3.08492 8.60979 3.07442 9.61779C2.98167 11.3135 2.98167 11.758 2.98167 16.0088C2.98167 20.2088 2.99742 20.718 3.07442 22.4033C3.09017 23.4008 3.27392 24.3895 3.61867 25.3258C4.15417 26.703 5.24617 27.7915 6.62692 28.32C7.56161 28.6693 8.5499 28.8535 9.54767 28.8643C11.2417 28.9623 11.6879 28.9623 15.9439 28.9623C20.2367 28.9623 20.6812 28.9413 22.3384 28.8643C23.3366 28.8522 24.3253 28.6681 25.2609 28.32C25.9399 28.0564 26.5566 27.6543 27.0718 27.1394C27.587 26.6246 27.9894 26.0081 28.2534 25.3293C28.6034 24.3843 28.7872 23.3833 28.7977 22.3753H28.8169C28.8922 20.7023 28.8922 20.256 28.8922 15.9808C28.8922 11.7055 28.8729 11.2558 28.7977 9.58454C28.7818 8.58784 28.5978 7.60097 28.2534 6.66554C27.99 5.98574 27.5878 5.36827 27.0726 4.85245C26.5574 4.33663 25.9404 3.93377 25.2609 3.66954C24.3247 3.31954 23.3359 3.13754 22.3384 3.12529C20.6462 3.02904 20.2034 3.02904 15.9439 3.02904V3.02904ZM16.0034 24.092C14.4032 24.0931 12.8386 23.6195 11.5075 22.7313C10.1764 21.843 9.13861 20.5799 8.52543 19.1018C7.91224 17.6237 7.75117 15.997 8.0626 14.4273C8.37403 12.8577 9.14397 11.4156 10.275 10.2836C11.4061 9.15156 12.8475 8.38038 14.4168 8.06759C15.9862 7.7548 17.6131 7.91446 19.0917 8.52637C20.5704 9.13828 21.8343 10.175 22.7237 11.5053C23.6132 12.8356 24.0881 14.3998 24.0884 16C24.0856 18.1441 23.2332 20.1997 21.7177 21.7164C20.2023 23.2332 18.1475 24.0874 16.0034 24.092V24.092ZM16.0034 10.7465C14.9651 10.7465 13.95 11.0544 13.0867 11.6313C12.2233 12.2082 11.5504 13.0281 11.153 13.9875C10.7557 14.9468 10.6517 16.0024 10.8543 17.0208C11.0569 18.0392 11.5569 18.9746 12.2911 19.7088C13.0253 20.4431 13.9608 20.9431 14.9792 21.1457C15.9976 21.3482 17.0532 21.2443 18.0125 20.8469C18.9718 20.4495 19.7918 19.7766 20.3686 18.9133C20.9455 18.0499 21.2534 17.0349 21.2534 15.9965C21.2502 14.6051 20.696 13.2717 19.7122 12.2878C18.7283 11.3039 17.3948 10.7498 16.0034 10.7465ZM24.4034 9.49879C24.1557 9.49787 23.9105 9.44816 23.682 9.35251C23.4535 9.25685 23.246 9.11712 23.0715 8.9413C22.719 8.5862 22.5221 8.10562 22.5239 7.60529C22.5258 7.10496 22.7263 6.62586 23.0814 6.27338C23.4365 5.92091 23.9171 5.72393 24.4174 5.72579C24.9177 5.72765 25.3968 5.92818 25.7493 6.28328C26.1018 6.63838 26.2988 7.11896 26.2969 7.61929C26.2951 8.11962 26.0945 8.59872 25.7394 8.9512C25.3843 9.30367 24.9037 9.50065 24.4034 9.49879Z" fill="#F38281"/>
</svg>
