<svg width="22" height="35" viewBox="0 0 22 35" fill="none" xmlns="http://www.w3.org/2000/svg">
<path d="M10.685 16.2645C9.55664 16.2645 8.45364 15.9299 7.51546 15.303C6.57727 14.6762 5.84605 13.7852 5.41425 12.7427C4.98245 11.7003 4.86947 10.5532 5.0896 9.4465C5.30973 8.33984 5.85308 7.32331 6.65094 6.52545C7.4488 5.72759 8.46533 5.18424 9.57199 4.96411C10.6787 4.74399 11.8257 4.85696 12.8682 5.28876C13.9106 5.72056 14.8016 6.45178 15.4285 7.38997C16.0554 8.32815 16.39 9.43115 16.39 10.5595C16.39 12.0726 15.7889 13.5236 14.719 14.5935C13.6491 15.6634 12.198 16.2645 10.685 16.2645V16.2645ZM10.685 6.60449C9.90276 6.60449 9.1381 6.83645 8.4877 7.27103C7.83731 7.70561 7.33038 8.3233 7.03104 9.04598C6.73169 9.76866 6.65337 10.5639 6.80598 11.3311C6.95858 12.0983 7.33526 12.803 7.88838 13.3561C8.44149 13.9092 9.14621 14.2859 9.9134 14.4385C10.6806 14.5911 11.4758 14.5128 12.1985 14.2134C12.9212 13.9141 13.5389 13.4072 13.9734 12.7568C14.408 12.1064 14.64 11.3417 14.64 10.5595C14.64 9.51056 14.2233 8.50459 13.4816 7.76289C12.7399 7.02118 11.7339 6.60449 10.685 6.60449Z" fill="#F38281"/>
<path d="M20.5553 13.3946H20.4153C20.2004 13.3406 20.0133 13.2085 19.8904 13.0242C19.7675 12.8398 19.7176 12.6163 19.7503 12.3971V12.1171C19.7561 11.9947 19.7561 11.8721 19.7503 11.7496C19.7676 11.5692 19.7676 11.3876 19.7503 11.2071C19.7503 10.7521 19.7503 10.5246 19.7503 10.5246C19.7503 8.17152 18.8156 5.91476 17.1516 4.25084C15.4877 2.58693 13.231 1.65215 10.8778 1.65215C8.52471 1.65215 6.26795 2.58693 4.60404 4.25084C2.94012 5.91476 2.00534 8.17152 2.00534 10.5246C2.00534 10.5246 2.00534 10.7521 2.00534 11.0846C2.05411 11.3171 2.13665 11.5411 2.25034 11.7496V12.1871V12.4671C2.26758 12.5821 2.26201 12.6992 2.23396 12.812C2.20591 12.9247 2.15593 13.0309 2.08687 13.1243C2.0178 13.2177 1.93101 13.2967 1.83145 13.3566C1.73188 13.4165 1.6215 13.4562 1.50659 13.4734C1.39168 13.4906 1.27451 13.4851 1.16175 13.457C1.049 13.429 0.942868 13.379 0.849429 13.3099C0.75599 13.2409 0.67707 13.1541 0.617173 13.0545C0.557276 12.9549 0.517576 12.8446 0.50034 12.7296V12.0996C0.469939 11.8146 0.469939 11.5272 0.50034 11.2421V10.6996C0.50034 7.88239 1.61949 5.18051 3.6116 3.18841C5.6037 1.1963 8.30558 0.0771484 11.1228 0.0771484C13.9401 0.0771484 16.642 1.1963 18.6341 3.18841C20.6262 5.18051 21.7453 7.88239 21.7453 10.6996C21.7453 10.6996 21.7453 10.9971 21.7453 11.3471C21.7422 11.635 21.7129 11.9221 21.6578 12.2046L21.5003 12.6596C21.4698 12.8812 21.3539 13.082 21.1773 13.2194C21.0008 13.3567 20.7776 13.4196 20.5553 13.3946Z" fill="#F38281"/>
<path d="M11.0002 34.0618C10.8854 34.0632 10.7716 34.0406 10.6662 33.9954C10.5607 33.9502 10.4658 33.8834 10.3877 33.7993C1.11268 24.5243 0.500181 11.1543 0.377681 10.5943C0.372991 10.4794 0.391009 10.3647 0.430701 10.2567C0.470393 10.1487 0.530981 10.0497 0.609 9.96515C0.687019 9.88063 0.780937 9.81233 0.885381 9.76414C0.989825 9.71595 1.10274 9.68883 1.21768 9.68432C1.33261 9.67963 1.44734 9.69765 1.55529 9.73734C1.66325 9.77703 1.76233 9.83762 1.84685 9.91564C1.93137 9.99366 1.99968 10.0876 2.04786 10.192C2.09605 10.2965 2.12318 10.4094 2.12768 10.5243C2.12768 10.6468 2.84518 23.7893 11.6127 32.5743C11.6964 32.6529 11.7631 32.7478 11.8087 32.8531C11.8543 32.9585 11.8778 33.072 11.8778 33.1868C11.8778 33.3016 11.8543 33.4152 11.8087 33.5205C11.7631 33.6259 11.6964 33.7208 11.6127 33.7993C11.5346 33.8834 11.4397 33.9502 11.3342 33.9954C11.2287 34.0406 11.1149 34.0632 11.0002 34.0618V34.0618Z" fill="#F38281"/>
<path d="M11.0002 34.0623C10.8855 34.0637 10.7717 34.041 10.6662 33.9958C10.5607 33.9506 10.4658 33.8838 10.3877 33.7998C10.304 33.7212 10.2373 33.6263 10.1917 33.521C10.1461 33.4156 10.1226 33.302 10.1226 33.1873C10.1226 33.0725 10.1461 32.9589 10.1917 32.8535C10.2373 32.7482 10.304 32.6533 10.3877 32.5748C19.1377 23.8248 19.8552 10.6473 19.8727 10.5248C19.8665 10.4067 19.8865 10.2887 19.931 10.1792C19.9756 10.0697 20.0437 9.9714 20.1306 9.89122C20.2175 9.81103 20.3209 9.75096 20.4336 9.71528C20.5463 9.6796 20.6655 9.66918 20.7827 9.68476C21.0133 9.69829 21.2296 9.80066 21.3862 9.97036C21.5429 10.1401 21.6276 10.3639 21.6227 10.5948C21.6227 11.1548 20.8877 24.5948 11.6127 33.7998C11.5346 33.8838 11.4397 33.9506 11.3342 33.9958C11.2288 34.041 11.115 34.0637 11.0002 34.0623V34.0623Z" fill="#F38281"/>
</svg>
