<svg width="73" height="74" viewBox="0 0 73 74" fill="none" xmlns="http://www.w3.org/2000/svg">
<path d="M37.5002 71.3334C31.8309 71.3385 26.2434 69.9809 21.2085 67.375C20.965 67.2492 20.7487 67.0766 20.5719 66.8672C20.3951 66.6577 20.2613 66.4155 20.1781 66.1543C20.0949 65.8932 20.064 65.6182 20.0871 65.3451C20.1102 65.0719 20.1868 64.806 20.3127 64.5625C20.4385 64.3191 20.6111 64.1027 20.8206 63.9259C21.03 63.7491 21.2722 63.6153 21.5334 63.5321C21.7946 63.449 22.0695 63.418 22.3427 63.4411C22.6158 63.4642 22.8817 63.5409 23.1252 63.6667C29.8689 67.0975 37.6263 67.9722 44.9647 66.1293C52.3031 64.2864 58.7268 59.8503 63.0494 53.6403C67.372 47.4303 69.3015 39.866 68.4816 32.3443C67.6617 24.8225 64.1478 17.8516 58.5887 12.7187C53.0297 7.58592 45.8012 4.63799 38.238 4.41939C30.6749 4.20079 23.2882 6.72628 17.442 11.5295C11.5958 16.3326 7.68504 23.089 6.43206 30.5508C5.17908 38.0126 6.66847 45.6758 10.6252 52.1251C10.9043 52.6023 10.9864 53.1694 10.8542 53.7062C10.7219 54.243 10.3857 54.7071 9.91684 55C9.68194 55.1437 9.42089 55.2394 9.14879 55.2815C8.87669 55.3236 8.59894 55.3114 8.3316 55.2455C8.06425 55.1797 7.81262 55.0615 7.59124 54.8977C7.36986 54.734 7.18312 54.528 7.04184 54.2917C2.46936 46.9695 0.728624 38.2294 2.14681 29.7141C3.565 21.1987 8.04446 13.4945 14.7433 8.04953C21.4421 2.60452 29.8989 -0.206392 38.5244 0.145117C47.1499 0.496626 55.35 3.98635 61.5835 9.95839C66.3974 14.4203 69.8767 20.1321 71.6331 26.4564C73.3895 32.7808 73.3538 39.4688 71.5301 45.774C69.7063 52.0793 66.1663 57.7537 61.3051 62.164C56.4438 66.5742 50.4527 69.5469 44.0002 70.75C41.8567 71.1489 39.6804 71.3443 37.5002 71.3334V71.3334Z" fill="#95E1D3"/>
<path d="M5.16666 73.5001C4.35897 73.4849 3.56747 73.2708 2.86216 72.8769C2.15685 72.4831 1.55947 71.9214 1.12283 71.2418C0.686194 70.5621 0.423759 69.7853 0.35873 68.9801C0.293701 68.1749 0.428084 67.366 0.749995 66.6251L7.08333 52.3751C7.31908 51.8701 7.74381 51.4779 8.266 51.283C8.78819 51.0882 9.36603 51.1063 9.87499 51.3334C10.3771 51.5608 10.7686 51.9779 10.9638 52.4933C11.1591 53.0087 11.1421 53.5805 10.9167 54.0834L4.54166 68.3334C4.46052 68.4416 4.41666 68.5732 4.41666 68.7084C4.41666 68.8437 4.46052 68.9753 4.54166 69.0834C4.63268 69.1876 4.7522 69.2628 4.88548 69.2999C5.01876 69.3369 5.15996 69.3341 5.29166 69.2918L21.3333 63.5834C21.59 63.4847 21.8641 63.4388 22.139 63.4486C22.4138 63.4583 22.6839 63.5236 22.933 63.6403C23.182 63.7571 23.4049 63.9229 23.5883 64.1279C23.7716 64.333 23.9117 64.5729 24 64.8334C24.1876 65.3528 24.1614 65.9255 23.927 66.4255C23.6926 66.9256 23.2692 67.3121 22.75 67.5001L6.83333 73.2084C6.30018 73.4064 5.73535 73.5053 5.16666 73.5001Z" fill="#95E1D3"/>
</svg>
