<svg width="128" height="128" viewBox="0 0 128 128" fill="none" xmlns="http://www.w3.org/2000/svg">
<path d="M98.8197 84.3772C98.2424 83.4583 97.4877 82.6636 96.5997 82.0397C95.7118 81.4158 94.7083 80.9752 93.6481 80.7435C89.5917 79.8001 86.0737 77.2894 83.8627 73.7601C81.6518 70.2307 80.9278 65.9697 81.8488 61.9082C82.2029 60.3384 82.0853 58.699 81.5107 57.1958C80.9361 55.6926 79.9302 54.3927 78.6193 53.4594C77.3083 52.5261 75.7508 52.001 74.1423 51.9499C72.5339 51.8989 70.9463 52.3242 69.5788 53.1725C68.2113 54.0209 67.125 55.2543 66.4562 56.718C65.7875 58.1818 65.5661 59.8104 65.82 61.3995C66.0738 62.9886 66.7916 64.4673 67.8831 65.6498C68.9745 66.8323 70.3911 67.666 71.9548 68.046C73.9778 68.5023 75.8908 69.3534 77.5842 70.5505C79.2776 71.7475 80.7181 73.2671 81.8231 75.0219C82.9281 76.7768 83.6759 78.7325 84.0236 80.7769C84.3714 82.8213 84.3122 84.9143 83.8495 86.9358C83.5755 88.239 83.6243 89.5894 83.9918 90.8693C84.3593 92.1492 85.0343 93.3198 85.9579 94.2792C86.8815 95.2385 88.0256 95.9574 89.2907 96.3732C90.5558 96.789 91.9033 96.889 93.2159 96.6647C94.5286 96.4404 95.7664 95.8984 96.8216 95.0861C97.8768 94.2737 98.7172 93.2157 99.2698 92.0041C99.8223 90.7924 100.07 89.4641 99.9918 88.1348C99.9133 86.8054 99.511 85.5154 98.8197 84.3772Z" fill="#414042"/>
<path d="M48.6146 75.3133C50.0431 76.0928 51.6718 76.4278 53.2919 76.2752C54.9121 76.1226 56.4496 75.4894 57.7074 74.4569C58.9652 73.4243 59.8858 72.0395 60.351 70.4802C60.8163 68.9208 60.8051 67.258 60.3187 65.7051C59.7022 63.7249 59.4825 61.6426 59.6724 59.5774C59.8623 57.5122 60.4578 55.5048 61.4251 53.6703C62.3923 51.8358 63.7122 50.2102 65.3089 48.8867C66.9056 47.5632 68.7477 46.568 70.7298 45.9579C72.2671 45.4764 73.6276 44.5509 74.6401 43.298C75.6526 42.0451 76.2718 40.5207 76.4199 38.9166C76.5681 37.3125 76.2385 35.7004 75.4726 34.2833C74.7067 32.8661 73.5388 31.7071 72.1158 30.9522C70.6927 30.1973 69.0781 29.8801 67.4753 30.0407C65.8724 30.2012 64.3528 30.8322 63.1077 31.8544C61.8626 32.8765 60.9477 34.2441 60.478 35.785C60.0084 37.3259 60.0051 38.9713 60.4684 40.5141C61.6846 44.4971 61.2733 48.7998 59.3247 52.4803C57.376 56.1608 54.0486 58.9194 50.0708 60.1524C48.5005 60.6078 47.1031 61.524 46.0594 62.7826C45.0157 64.0412 44.3737 65.5841 44.2168 67.2115C44.06 68.839 44.3953 70.4761 45.1794 71.9108C45.9635 73.3456 47.1602 74.5119 48.6146 75.2588V75.3133Z" fill="#414042"/>
<path d="M69.6273 73.9792C68.5416 74.0173 67.4745 74.2717 66.4883 74.7274C65.5021 75.1831 64.6168 75.8309 63.8841 76.6331C61.0416 79.6734 57.1109 81.4646 52.9515 81.6151C48.792 81.7656 44.7421 80.263 41.6873 77.436C40.898 76.6954 39.9694 76.1191 38.9554 75.7406C37.9415 75.3621 36.8624 75.189 35.7809 75.2313C34.4497 75.2941 33.154 75.6818 32.0071 76.3605C30.8601 77.0392 29.8968 77.9883 29.2011 79.1249C28.5053 80.2616 28.0984 81.5513 28.0157 82.8814C27.9331 84.2116 28.1772 85.5417 28.7269 86.7558C29.2766 87.9698 30.115 89.0309 31.1691 89.8464C32.2232 90.6619 33.4608 91.2069 34.774 91.434C36.0872 91.6611 37.4361 91.5634 38.7028 91.1493C39.9696 90.7352 41.1157 90.0174 42.0411 89.0584C43.4489 87.5342 45.1435 86.3027 47.0279 85.4345C48.9124 84.5663 50.9496 84.0783 53.0229 83.9987C55.0962 83.9191 57.1649 84.2492 59.1104 84.9703C61.0559 85.6915 62.84 86.7893 64.3605 88.201C65.3504 89.0955 66.5444 89.7337 67.838 90.0599C69.1317 90.3862 70.4855 90.3905 71.7812 90.0725C73.0769 89.7545 74.2748 89.1239 75.2704 88.2358C76.266 87.3477 77.0288 86.2291 77.4922 84.978C77.9555 83.7269 78.1052 82.3814 77.9283 81.059C77.7513 79.7367 77.253 78.4779 76.4769 77.3926C75.7009 76.3074 74.6709 75.4289 73.4768 74.8338C72.2827 74.2388 70.961 73.9453 69.6273 73.9792Z" fill="#414042"/>
</svg>
