<svg width="32" height="38" viewBox="0 0 32 38" fill="none" xmlns="http://www.w3.org/2000/svg">
<path d="M16.4167 19C14.6037 19 12.8314 18.4624 11.3239 17.4551C9.81649 16.4479 8.64158 15.0162 7.94778 13.3413C7.25397 11.6663 7.07244 9.82316 7.42614 8.045C7.77984 6.26684 8.65288 4.6335 9.93486 3.35152C11.2168 2.06953 12.8502 1.19649 14.6283 0.842796C16.4065 0.489098 18.2496 0.670628 19.9246 1.36443C21.5996 2.05823 23.0312 3.23315 24.0385 4.7406C25.0457 6.24805 25.5833 8.02033 25.5833 9.83333C25.5789 12.2631 24.6117 14.5921 22.8936 16.3103C21.1755 18.0284 18.8465 18.9956 16.4167 19ZM16.4167 2.33333C14.9333 2.33333 13.4833 2.77319 12.2499 3.59731C11.0165 4.42142 10.0552 5.59276 9.48757 6.9632C8.91992 8.33365 8.77139 9.84165 9.06078 11.2965C9.35017 12.7514 10.0645 14.0877 11.1134 15.1366C12.1623 16.1855 13.4986 16.8998 14.9535 17.1892C16.4083 17.4786 17.9164 17.3301 19.2868 16.7624C20.6572 16.1948 21.8286 15.2335 22.6527 14.0001C23.4768 12.7667 23.9167 11.3167 23.9167 9.83333C23.9123 7.84556 23.1207 5.94046 21.7151 4.53489C20.3095 3.12932 18.4044 2.33773 16.4167 2.33333V2.33333Z" fill="white"/>
<path d="M1.41683 32.3333C1.19582 32.3333 0.983854 32.2455 0.827574 32.0892C0.671294 31.933 0.583496 31.721 0.583496 31.5C0.587907 27.7441 2.08188 24.1433 4.73769 21.4875C7.3935 18.8317 10.9943 17.3377 14.7502 17.3333H18.0835C18.3045 17.3333 18.5165 17.4211 18.6728 17.5774C18.829 17.7337 18.9168 17.9456 18.9168 18.1666C18.9168 18.3877 18.829 18.5996 18.6728 18.7559C18.5165 18.9122 18.3045 19 18.0835 19H14.7502C11.435 19 8.25553 20.3169 5.91133 22.6611C3.56712 25.0053 2.25016 28.1848 2.25016 31.5C2.25016 31.721 2.16237 31.933 2.00608 32.0892C1.8498 32.2455 1.63784 32.3333 1.41683 32.3333Z" fill="white"/>
<path d="M23.9168 37.3333C23.6958 37.3333 23.4839 37.2455 23.3276 37.0892C23.1713 36.933 23.0835 36.721 23.0835 36.5V23.1666C23.0835 22.9456 23.1713 22.7337 23.3276 22.5774C23.4839 22.4211 23.6958 22.3333 23.9168 22.3333C24.1378 22.3333 24.3498 22.4211 24.5061 22.5774C24.6624 22.7337 24.7502 22.9456 24.7502 23.1666V36.5C24.7502 36.721 24.6624 36.933 24.5061 37.0892C24.3498 37.2455 24.1378 37.3333 23.9168 37.3333Z" fill="white"/>
<path d="M30.5837 30.6667H17.2503C17.0293 30.6667 16.8173 30.5789 16.6611 30.4226C16.5048 30.2663 16.417 30.0543 16.417 29.8333C16.417 29.6123 16.5048 29.4004 16.6611 29.2441C16.8173 29.0878 17.0293 29 17.2503 29H30.5837C30.8047 29 31.0166 29.0878 31.1729 29.2441C31.3292 29.4004 31.417 29.6123 31.417 29.8333C31.417 30.0543 31.3292 30.2663 31.1729 30.4226C31.0166 30.5789 30.8047 30.6667 30.5837 30.6667Z" fill="white"/>
</svg>
