<svg width="70" height="70" viewBox="0 0 70 70" fill="none" xmlns="http://www.w3.org/2000/svg">
<path d="M30.1583 51.1875C29.8629 51.1933 29.5725 51.111 29.3241 50.9511C29.0756 50.7912 28.8805 50.561 28.7634 50.2897C28.6463 50.0185 28.6127 49.7185 28.6667 49.4281C28.7208 49.1376 28.8601 48.8699 29.0669 48.6589C29.2737 48.448 29.5387 48.3034 29.828 48.2436C30.1173 48.1838 30.4179 48.2115 30.6914 48.3231C30.9649 48.4348 31.199 48.6254 31.3637 48.8706C31.5285 49.1158 31.6165 49.4046 31.6166 49.7C31.6167 50.0895 31.464 50.4635 31.1913 50.7416C30.9186 51.0198 30.5477 51.1798 30.1583 51.1875V51.1875Z" fill="#95E1D3"/>
<path d="M40.8626 51.1874C41.668 51.1874 42.321 50.5345 42.321 49.7291C42.321 48.9237 41.668 48.2708 40.8626 48.2708C40.0572 48.2708 39.4043 48.9237 39.4043 49.7291C39.4043 50.5345 40.0572 51.1874 40.8626 51.1874Z" fill="#95E1D3"/>
<path d="M41.6209 62.65H28.3792C24.9446 62.65 21.6508 61.2856 19.2222 58.857C16.7936 56.4284 15.4292 53.1346 15.4292 49.7C15.4292 46.2654 16.7936 42.9716 19.2222 40.543C21.6508 38.1144 24.9446 36.75 28.3792 36.75H41.6209C45.0554 36.75 48.3493 38.1144 50.7779 40.543C53.2065 42.9716 54.5709 46.2654 54.5709 49.7C54.5709 53.1346 53.2065 56.4284 50.7779 58.857C48.3493 61.2856 45.0554 62.65 41.6209 62.65V62.65ZM28.3792 39.6667C27.0616 39.6667 25.7569 39.9262 24.5396 40.4304C23.3223 40.9346 22.2162 41.6737 21.2846 42.6054C20.3529 43.537 19.6138 44.6431 19.1096 45.8604C18.6054 47.0777 18.3459 48.3824 18.3459 49.7C18.3459 51.0176 18.6054 52.3223 19.1096 53.5396C19.6138 54.7569 20.3529 55.863 21.2846 56.7946C22.2162 57.7263 23.3223 58.4654 24.5396 58.9696C25.7569 59.4738 27.0616 59.7333 28.3792 59.7333H41.6209C44.2819 59.7333 46.8339 58.6762 48.7155 56.7946C50.5971 54.913 51.6542 52.361 51.6542 49.7C51.6542 47.039 50.5971 44.487 48.7155 42.6054C46.8339 40.7237 44.2819 39.6667 41.6209 39.6667H28.3792Z" fill="#95E1D3"/>
<path d="M58.3332 43.925H50.5166C50.1298 43.925 49.7589 43.7713 49.4854 43.4978C49.2119 43.2243 49.0582 42.8534 49.0582 42.4666C49.0582 42.0799 49.2119 41.7089 49.4854 41.4354C49.7589 41.1619 50.1298 41.0083 50.5166 41.0083H58.3332C59.7387 41.0006 61.0845 40.4389 62.0783 39.4451C63.0722 38.4512 63.6339 37.1055 63.6416 35.7C63.6339 28.962 60.9558 22.5019 56.1941 17.7347C51.4324 12.9675 44.9753 10.2821 38.2374 10.2666H32.0832C25.3403 10.2744 18.8757 12.9564 14.1077 17.7244C9.33968 22.4924 6.65762 28.957 6.6499 35.7C6.65756 37.1055 7.21929 38.4512 8.21314 39.4451C9.20699 40.4389 10.5527 41.0006 11.9582 41.0083H19.4832C19.87 41.0083 20.2409 41.1619 20.5144 41.4354C20.7879 41.7089 20.9416 42.0799 20.9416 42.4666C20.9416 42.8534 20.7879 43.2243 20.5144 43.4978C20.2409 43.7713 19.87 43.925 19.4832 43.925H11.8124C9.631 43.925 7.53894 43.0584 5.99645 41.5159C4.45396 39.9734 3.5874 37.8814 3.5874 35.7C3.59121 31.9658 4.33194 28.2691 5.76713 24.8217C7.20232 21.3743 9.30376 18.2441 11.951 15.6104C14.5982 12.9767 17.7392 10.8913 21.1939 9.47386C24.6486 8.05637 28.3491 7.33462 32.0832 7.34997H38.2374C45.7438 7.36538 52.9384 10.3541 58.2462 15.662C63.5541 20.9698 66.5428 28.1644 66.5582 35.6708C66.5582 37.8549 65.6926 39.95 64.151 41.4971C62.6093 43.0442 60.5173 43.9173 58.3332 43.925V43.925Z" fill="#95E1D3"/>
<path d="M9.24594 35.9625C7.65317 35.9377 6.07954 35.6111 4.60844 35C4.43023 34.9292 4.26771 34.8241 4.13018 34.6905C3.99266 34.5569 3.88282 34.3975 3.80697 34.2214C3.73112 34.0453 3.69073 33.856 3.68812 33.6643C3.68552 33.4726 3.72074 33.2822 3.79178 33.1041C3.85603 32.9245 3.95633 32.7598 4.08653 32.6203C4.21672 32.4808 4.37405 32.3694 4.54886 32.2929C4.72368 32.2165 4.91228 32.1765 5.10309 32.1756C5.2939 32.1746 5.48288 32.2127 5.65844 32.2875C6.80392 32.726 8.0194 32.9533 9.24594 32.9583C11.2595 32.9441 13.2163 32.2891 14.8326 31.0881C16.449 29.8872 17.6408 28.2027 18.2355 26.2789C18.8302 24.355 18.7969 22.2918 18.1402 20.3882C17.4836 18.4847 16.2378 16.8396 14.5834 15.6916C14.3146 15.4569 14.1412 15.1317 14.096 14.7777C14.0508 14.4237 14.137 14.0654 14.3383 13.7707C14.5396 13.4759 14.8419 13.2653 15.1881 13.1785C15.5343 13.0918 15.9003 13.135 16.2168 13.3C18.4139 14.7865 20.0762 16.9388 20.9593 19.4403C21.8423 21.9418 21.8996 24.6606 21.1227 27.1971C20.3457 29.7335 18.7756 31.9538 16.643 33.5316C14.5104 35.1094 11.9279 35.9614 9.27511 35.9625H9.24594Z" fill="#95E1D3"/>
<path d="M64.9251 35.9041C60.3674 35.5593 56.107 33.5095 52.9933 30.1634C49.8797 26.8173 48.1414 22.4206 48.1251 17.8499C48.1189 15.6456 48.5245 13.4595 49.3209 11.4041C49.3916 11.2259 49.4968 11.0634 49.6304 10.9258C49.764 10.7883 49.9234 10.6785 50.0995 10.6026C50.2756 10.5268 50.4649 10.4864 50.6566 10.4838C50.8483 10.4812 51.0386 10.5164 51.2167 10.5874C51.3964 10.6517 51.561 10.752 51.7005 10.8822C51.84 11.0124 51.9514 11.1697 52.0279 11.3445C52.1044 11.5193 52.1443 11.7079 52.1453 11.8987C52.1462 12.0895 52.1081 12.2785 52.0334 12.4541C51.2201 14.6529 50.9265 17.01 51.1757 19.3412C51.4249 21.6723 52.2101 23.9141 53.4698 25.8913C54.7296 27.8685 56.4297 29.5274 58.4372 30.7382C60.4448 31.949 62.7052 32.6789 65.0417 32.8708C65.4285 32.8708 65.7994 33.0244 66.0729 33.2979C66.3464 33.5714 66.5001 33.9423 66.5001 34.3291C66.5001 34.7159 66.3464 35.0868 66.0729 35.3603C65.7994 35.6338 65.4285 35.7874 65.0417 35.7874L64.9251 35.9041Z" fill="#95E1D3"/>
</svg>
