<svg width="70" height="70" viewBox="0 0 70 70" fill="none" xmlns="http://www.w3.org/2000/svg">
<path d="M26.6874 32.0833H12.1041C10.8096 32.0833 9.56764 31.5711 8.64955 30.6584C7.73145 29.7458 7.21181 28.507 7.2041 27.2125V12.6291C7.21175 11.3319 7.73046 10.09 8.64774 9.17276C9.56501 8.25549 10.8069 7.73678 12.1041 7.72913H26.6874C27.9846 7.73678 29.2265 8.25549 30.1438 9.17276C31.0611 10.09 31.5798 11.3319 31.5874 12.6291V27.2125C31.5797 28.507 31.0601 29.7458 30.142 30.6584C29.2239 31.5711 27.982 32.0833 26.6874 32.0833V32.0833ZM12.1041 10.6166C11.5804 10.6242 11.0803 10.8355 10.71 11.2059C10.3397 11.5762 10.1283 12.0763 10.1208 12.6V27.1833C10.1208 27.7093 10.3297 28.2138 10.7017 28.5857C11.0736 28.9577 11.5781 29.1666 12.1041 29.1666H26.6874C27.2134 29.1666 27.7179 28.9577 28.0899 28.5857C28.4618 28.2138 28.6708 27.7093 28.6708 27.1833V12.6C28.6632 12.0763 28.4519 11.5762 28.0815 11.2059C27.7112 10.8355 27.2111 10.6242 26.6874 10.6166H12.1041Z" fill="#95E1D3"/>
<path d="M57.8959 32.0833H43.3126C42.013 32.0833 40.7667 31.567 39.8478 30.6481C38.9288 29.7292 38.4126 28.4828 38.4126 27.1833V12.6C38.4203 11.3028 38.939 10.0609 39.8562 9.14358C40.7735 8.22631 42.0154 7.7076 43.3126 7.69995H57.8959C59.1931 7.7076 60.435 8.22631 61.3523 9.14358C62.2696 10.0609 62.7883 11.3028 62.7959 12.6V27.1833C62.7959 28.4828 62.2797 29.7292 61.3608 30.6481C60.4418 31.567 59.1955 32.0833 57.8959 32.0833V32.0833ZM43.3126 10.6166C42.7889 10.6242 42.2888 10.8355 41.9185 11.2059C41.5482 11.5762 41.3368 12.0763 41.3293 12.6V27.1833C41.3293 27.7093 41.5382 28.2138 41.9102 28.5857C42.2821 28.9577 42.7866 29.1666 43.3126 29.1666H57.8959C58.4219 29.1666 58.9264 28.9577 59.2984 28.5857C59.6703 28.2138 59.8793 27.7093 59.8793 27.1833V12.6C59.8717 12.0763 59.6603 11.5762 59.29 11.2059C58.9197 10.8355 58.4196 10.6242 57.8959 10.6166H43.3126Z" fill="#95E1D3"/>
<path d="M26.6874 62.2708H12.1041C10.8069 62.2631 9.56501 61.7444 8.64774 60.8272C7.73046 59.9099 7.21175 58.668 7.2041 57.3708V42.7875C7.21181 41.493 7.73145 40.2541 8.64955 39.3415C9.56764 38.4288 10.8096 37.9166 12.1041 37.9166H26.6874C27.987 37.9166 29.2333 38.4329 30.1523 39.3518C31.0712 40.2707 31.5874 41.5171 31.5874 42.8166V57.4C31.5722 58.6921 31.0501 59.9265 30.1336 60.8375C29.2172 61.7485 27.9796 62.2632 26.6874 62.2708V62.2708ZM12.1041 40.8333C11.5781 40.8333 11.0736 41.0423 10.7017 41.4142C10.3297 41.7861 10.1208 42.2906 10.1208 42.8166V57.4C10.1283 57.9236 10.3397 58.4237 10.71 58.7941C11.0803 59.1644 11.5804 59.3758 12.1041 59.3833H26.6874C27.2111 59.3758 27.7112 59.1644 28.0815 58.7941C28.4519 58.4237 28.6632 57.9236 28.6708 57.4V42.8166C28.6708 42.2906 28.4618 41.7861 28.0899 41.4142C27.7179 41.0423 27.2134 40.8333 26.6874 40.8333H12.1041Z" fill="#95E1D3"/>
<path d="M57.8959 62.2708H43.3126C42.0154 62.2631 40.7735 61.7444 39.8562 60.8272C38.939 59.9099 38.4203 58.668 38.4126 57.3708V42.7875C38.4203 41.493 38.94 40.2541 39.858 39.3415C40.7761 38.4288 42.0181 37.9166 43.3126 37.9166H57.8959C59.1955 37.9166 60.4418 38.4329 61.3608 39.3518C62.2797 40.2707 62.7959 41.5171 62.7959 42.8166V57.4C62.7807 58.6921 62.2586 59.9265 61.3421 60.8375C60.4257 61.7485 59.1881 62.2632 57.8959 62.2708V62.2708ZM43.3126 40.8041C42.7866 40.8041 42.2821 41.0131 41.9102 41.385C41.5382 41.757 41.3293 42.2614 41.3293 42.7875V57.3708C41.3368 57.8945 41.5482 58.3946 41.9185 58.7649C42.2888 59.1352 42.7889 59.3466 43.3126 59.3541H57.8959C58.4196 59.3466 58.9197 59.1352 59.29 58.7649C59.6603 58.3946 59.8717 57.8945 59.8793 57.3708V42.7875C59.8793 42.2614 59.6703 41.757 59.2984 41.385C58.9264 41.0131 58.4219 40.8041 57.8959 40.8041H43.3126Z" fill="#95E1D3"/>
</svg>
