<svg width="42" height="42" viewBox="0 0 42 42" fill="none" xmlns="http://www.w3.org/2000/svg">
<path d="M20.9999 26.3724C19.9374 26.3724 18.8986 26.0574 18.0151 25.467C17.1316 24.8767 16.443 24.0376 16.0364 23.0559C15.6298 22.0742 15.5234 20.994 15.7307 19.9518C15.938 18.9097 16.4497 17.9524 17.201 17.201C17.9524 16.4497 18.9097 15.938 19.9518 15.7307C20.994 15.5234 22.0742 15.6298 23.0559 16.0364C24.0376 16.443 24.8767 17.1316 25.467 18.0151C26.0574 18.8986 26.3724 19.9374 26.3724 20.9999C26.3678 22.4234 25.8003 23.7872 24.7938 24.7938C23.7872 25.8003 22.4234 26.3678 20.9999 26.3724ZM20.9999 17.3774C20.2835 17.3774 19.5831 17.5899 18.9874 17.9879C18.3917 18.386 17.9274 18.9517 17.6532 19.6137C17.379 20.2756 17.3073 21.004 17.447 21.7067C17.5868 22.4094 17.9318 23.0548 18.4385 23.5614C18.9451 24.0681 19.5905 24.4131 20.2932 24.5528C20.9959 24.6926 21.7243 24.6209 22.3862 24.3467C23.0481 24.0725 23.6139 23.6082 24.0119 23.0125C24.41 22.4168 24.6224 21.7164 24.6224 20.9999C24.6224 20.0392 24.2408 19.1178 23.5614 18.4385C22.8821 17.7591 21.9607 17.3774 20.9999 17.3774Z" fill="#95E1D3"/>
<path d="M21 32.375C18.7502 32.375 16.551 31.7079 14.6804 30.458C12.8098 29.2081 11.3518 27.4315 10.4909 25.353C9.62993 23.2745 9.40467 20.9874 9.84357 18.7809C10.2825 16.5743 11.3658 14.5475 12.9567 12.9567C14.5475 11.3658 16.5743 10.2825 18.7809 9.84357C20.9874 9.40467 23.2745 9.62993 25.353 10.4909C27.4315 11.3518 29.2081 12.8098 30.458 14.6804C31.7079 16.551 32.375 18.7502 32.375 21C32.375 24.0168 31.1766 26.9101 29.0433 29.0433C26.9101 31.1766 24.0168 32.375 21 32.375ZM21 11.375C19.0964 11.375 17.2355 11.9395 15.6526 12.9971C14.0698 14.0547 12.8362 15.5579 12.1077 17.3167C11.3792 19.0754 11.1886 21.0107 11.5599 22.8777C11.9313 24.7448 12.848 26.4598 14.1941 27.8059C15.5402 29.152 17.2552 30.0687 19.1223 30.4401C20.9893 30.8114 22.9246 30.6208 24.6833 29.8923C26.4421 29.1639 27.9453 27.9302 29.0029 26.3474C30.0605 24.7645 30.625 22.9036 30.625 21C30.6204 18.4487 29.6048 16.0032 27.8008 14.1992C25.9968 12.3952 23.5513 11.3796 21 11.375Z" fill="#95E1D3"/>
<path d="M21.0001 38.3776C17.5631 38.3776 14.2034 37.3584 11.3456 35.4489C8.48793 33.5395 6.26061 30.8255 4.94535 27.6501C3.63009 24.4748 3.28596 20.9808 3.95647 17.6099C4.62698 14.239 6.28203 11.1426 8.71232 8.71232C11.1426 6.28203 14.239 4.62698 17.6099 3.95647C20.9808 3.28596 24.4748 3.63009 27.6501 4.94535C30.8255 6.26061 33.5395 8.48793 35.4489 11.3456C37.3584 14.2034 38.3776 17.5631 38.3776 21.0001C38.3729 25.6074 36.5406 30.0248 33.2827 33.2827C30.0248 36.5406 25.6074 38.3729 21.0001 38.3776ZM21.0001 5.37257C17.9092 5.37257 14.8878 6.2891 12.3179 8.00627C9.74796 9.72345 7.74495 12.1641 6.56214 15.0197C5.37933 17.8752 5.06985 21.0174 5.67284 24.0488C6.27583 27.0803 7.76421 29.8648 9.94975 32.0504C12.1353 34.2359 14.9199 35.7243 17.9513 36.3273C20.9827 36.9303 24.1249 36.6208 26.9804 35.438C29.836 34.2552 32.2767 32.2522 33.9939 29.6822C35.711 27.1123 36.6276 24.0909 36.6276 21.0001C36.6276 18.9478 36.2233 16.9157 35.438 15.0197C34.6526 13.1237 33.5015 11.4009 32.0504 9.94975C30.5992 8.49861 28.8765 7.34749 26.9804 6.56214C25.0844 5.77678 23.0523 5.37257 21.0001 5.37257Z" fill="#95E1D3"/>
</svg>
