<svg width="70" height="70" viewBox="0 0 70 70" fill="none" xmlns="http://www.w3.org/2000/svg">
<path d="M35.0001 53.1125C34.6154 53.107 34.2485 52.9497 33.9792 52.675L17.3542 36.05C17.2175 35.9144 17.109 35.7531 17.035 35.5754C16.961 35.3977 16.9229 35.2071 16.9229 35.0146C16.9229 34.822 16.961 34.6314 17.035 34.4537C17.109 34.276 17.2175 34.1147 17.3542 33.9791L41.8251 9.18748C41.9471 9.03742 42.1038 8.91923 42.2816 8.84303C42.4594 8.76683 42.653 8.7349 42.8459 8.74998H59.6167C60.0012 8.75744 60.3678 8.91349 60.6397 9.18538C60.9115 9.45726 61.0676 9.82387 61.0751 10.2083L61.2501 26.8041C61.2547 27 61.2181 27.1947 61.1428 27.3756C61.0674 27.5565 60.9549 27.7195 60.8126 27.8541L36.0209 52.675C35.7499 52.9471 35.3841 53.1039 35.0001 53.1125V53.1125ZM20.4167 35L35.0001 49.5833L58.3334 26.25L58.1584 11.6666H43.5751L20.4167 35Z" fill="#95E1D3"/>
<path d="M43.1377 61.2499C42.7583 61.2463 42.3941 61.1006 42.1169 60.8416L9.18772 27.9124C9.05103 27.7768 8.94254 27.6156 8.8685 27.4378C8.79447 27.2601 8.75635 27.0695 8.75635 26.877C8.75635 26.6845 8.79447 26.4939 8.8685 26.3162C8.94254 26.1385 9.05103 25.9772 9.18772 25.8416C9.31865 25.7021 9.47678 25.5909 9.65236 25.5149C9.82794 25.4389 10.0172 25.3997 10.2086 25.3997C10.3999 25.3997 10.5892 25.4389 10.7647 25.5149C10.9403 25.5909 11.0985 25.7021 11.2294 25.8416L44.1877 58.7708C44.4568 59.0483 44.6072 59.4196 44.6072 59.8062C44.6072 60.1927 44.4568 60.5641 44.1877 60.8416C43.9 61.1025 43.5261 61.2479 43.1377 61.2499Z" fill="#95E1D3"/>
<path d="M20.4167 61.075C20.0225 61.074 19.6449 60.9167 19.3667 60.6375L9.24583 50.6625C9.0935 50.5263 8.97085 50.3602 8.88554 50.1745C8.80024 49.9889 8.7541 49.7876 8.75 49.5833C8.75 48.7958 8.75 48.6792 20.4167 37.2167C20.5522 37.08 20.7135 36.9715 20.8912 36.8974C21.069 36.8234 21.2596 36.7853 21.4521 36.7853C21.6446 36.7853 21.8352 36.8234 22.0129 36.8974C22.1906 36.9715 22.3519 37.08 22.4875 37.2167C22.7566 37.4942 22.907 37.8655 22.907 38.2521C22.907 38.6386 22.7566 39.01 22.4875 39.2875C19.3375 42.5542 14.2917 47.5417 12.3083 49.5833L20.4167 57.5458L30.7125 47.2208C30.9871 46.9462 31.3596 46.7919 31.7479 46.7919C32.1363 46.7919 32.5087 46.9462 32.7833 47.2208C33.0579 47.4954 33.2122 47.8679 33.2122 48.2562C33.2122 48.6446 33.0579 49.017 32.7833 49.2916L21.2917 60.6375C21.0591 60.8797 20.75 61.0342 20.4167 61.075V61.075Z" fill="#95E1D3"/>
<path d="M34.9999 36.4583C34.8086 36.4607 34.619 36.4229 34.4432 36.3476C34.2674 36.2722 34.1093 36.1609 33.979 36.0208C33.8395 35.8899 33.7283 35.7318 33.6523 35.5562C33.5763 35.3806 33.5371 35.1913 33.5371 35C33.5371 34.8087 33.5763 34.6194 33.6523 34.4438C33.7283 34.2682 33.8395 34.1101 33.979 33.9792L45.6457 22.3125C45.7798 22.1784 45.9389 22.0721 46.1141 21.9995C46.2892 21.927 46.4769 21.8896 46.6665 21.8896C46.8561 21.8896 47.0439 21.927 47.219 21.9995C47.3942 22.0721 47.5533 22.1784 47.6874 22.3125C47.8214 22.4465 47.9278 22.6057 48.0003 22.7809C48.0729 22.956 48.1102 23.1437 48.1102 23.3333C48.1102 23.5229 48.0729 23.7106 48.0003 23.8858C47.9278 24.061 47.8214 24.2201 47.6874 24.3542L36.0207 36.0208C35.8905 36.1609 35.7324 36.2722 35.5566 36.3476C35.3808 36.4229 35.1911 36.4607 34.9999 36.4583V36.4583Z" fill="#95E1D3"/>
</svg>
