<svg width="70" height="70" viewBox="0 0 70 70" fill="none" xmlns="http://www.w3.org/2000/svg">
<path d="M11.6668 59.7917C11.3651 59.7903 11.0705 59.6989 10.821 59.5292C10.6071 59.4092 10.4276 59.2362 10.2999 59.0267C10.1722 58.8173 10.1005 58.5785 10.0918 58.3334V17.5C10.0897 17.2038 10.1779 16.9139 10.3447 16.669C10.5114 16.4241 10.7488 16.2358 11.0252 16.1292L25.9293 10.2959C26.2694 10.1781 26.6392 10.1781 26.9793 10.2959L41.1252 15.8375L58.0127 10.2959C58.2303 10.213 58.4658 10.1883 58.696 10.2241C58.9261 10.2599 59.1429 10.355 59.3252 10.5C59.5098 10.6325 59.6594 10.808 59.761 11.0113C59.8626 11.2145 59.9133 11.4395 59.9085 11.6667V52.5C59.9107 52.8043 59.8157 53.1014 59.6373 53.348C59.459 53.5945 59.2065 53.7777 58.9168 53.8709L41.4168 59.7042C41.0964 59.82 40.7456 59.82 40.4252 59.7042L26.4252 54.1917L12.0752 59.7042C11.9433 59.7504 11.8061 59.7798 11.6668 59.7917ZM26.5418 51.0417C26.724 50.9983 26.9138 50.9983 27.096 51.0417L40.8335 56.7875L56.9627 51.3334V13.6792L41.5043 18.7542C41.1839 18.87 40.8331 18.87 40.5127 18.7542L26.4252 13.2417L13.0085 18.375V56.2917L25.9293 51.3625C26.0719 51.2489 26.2439 51.1781 26.4252 51.1584L26.5418 51.0417Z" fill="#95E1D3"/>
<path d="M26.4251 54.075C26.0384 54.075 25.6674 53.9214 25.3939 53.6479C25.1204 53.3744 24.9668 53.0035 24.9668 52.6167V11.6667C24.9668 11.2799 25.1204 10.909 25.3939 10.6355C25.6674 10.362 26.0384 10.2084 26.4251 10.2084C26.8119 10.2084 27.1828 10.362 27.4563 10.6355C27.7298 10.909 27.8835 11.2799 27.8835 11.6667V52.5C27.8996 52.7011 27.8738 52.9034 27.8078 53.094C27.7418 53.2846 27.6369 53.4595 27.4999 53.6075C27.3628 53.7555 27.1965 53.8735 27.0115 53.954C26.8265 54.0345 26.6269 54.0757 26.4251 54.075Z" fill="#95E1D3"/>
<path d="M41.096 59.7917C40.7093 59.7917 40.3383 59.6381 40.0648 59.3646C39.7913 59.0911 39.6377 58.7202 39.6377 58.3334V17.5001C39.6377 17.1133 39.7913 16.7424 40.0648 16.4689C40.3383 16.1954 40.7093 16.0417 41.096 16.0417C41.4828 16.0417 41.8537 16.1954 42.1272 16.4689C42.4007 16.7424 42.5544 17.1133 42.5544 17.5001V58.3334C42.5544 58.7202 42.4007 59.0911 42.1272 59.3646C41.8537 59.6381 41.4828 59.7917 41.096 59.7917Z" fill="#95E1D3"/>
</svg>
